<?xml version="1.0" standalone="no"?>
<!DOCTYPE svg PUBLIC "-//W3C//DTD SVG 20010904//EN"
 "http://www.w3.org/TR/2001/REC-SVG-20010904/DTD/svg10.dtd">
<svg version="1.0" xmlns="http://www.w3.org/2000/svg"
 width="512.000000pt" height="512.000000pt" viewBox="0 0 512.000000 512.000000"
 preserveAspectRatio="xMidYMid meet">
<metadata>
Created by potrace 1.14, written by Peter Selinger 2001-2017
</metadata>
<g transform="translate(0.000000,512.000000) scale(0.100000,-0.100000)"
fill="#000000" stroke="none">
<path d="M2180 4970 c-24 -13 -55 -19 -101 -20 -43 0 -70 -5 -78 -14 -6 -7
-39 -16 -73 -20 -34 -3 -69 -13 -78 -21 -9 -8 -32 -15 -52 -15 -20 0 -46 -9
-61 -20 -14 -11 -40 -20 -60 -20 -21 0 -41 -7 -52 -20 -11 -12 -31 -20 -50
-20 -19 0 -39 -8 -50 -20 -10 -11 -24 -20 -30 -20 -7 0 -18 -7 -25 -15 -7 -9
-29 -23 -49 -32 -20 -10 -42 -23 -49 -30 -7 -7 -24 -13 -37 -13 -27 0 -250
-146 -310 -203 -22 -21 -74 -69 -116 -105 -42 -37 -113 -107 -158 -157 -44
-49 -97 -106 -116 -125 -30 -30 -165 -224 -165 -236 0 -3 -8 -17 -18 -32 -73
-107 -112 -175 -112 -195 0 -13 -9 -32 -20 -42 -12 -11 -20 -31 -20 -50 0 -19
-8 -39 -20 -50 -11 -10 -20 -29 -20 -42 0 -14 -9 -36 -20 -50 -14 -18 -20 -41
-20 -73 0 -30 -6 -52 -15 -60 -8 -7 -15 -22 -15 -34 0 -12 -9 -46 -20 -76 -11
-30 -20 -69 -20 -85 0 -17 -4 -35 -9 -40 -5 -6 -16 -33 -25 -61 -14 -44 -16
-93 -13 -360 4 -302 11 -386 35 -431 7 -12 12 -52 12 -90 0 -51 5 -75 20 -98
12 -18 20 -47 20 -71 0 -25 6 -47 15 -54 8 -7 15 -29 15 -50 0 -22 8 -48 20
-63 11 -14 20 -40 20 -60 0 -21 7 -41 20 -52 11 -10 20 -31 20 -47 0 -16 9
-38 20 -50 11 -12 20 -30 20 -40 0 -10 9 -28 20 -40 11 -12 20 -30 20 -39 0
-10 5 -21 10 -24 6 -4 22 -27 35 -53 28 -53 29 -54 104 -166 29 -45 74 -105
100 -134 60 -69 334 -343 403 -403 63 -56 214 -159 231 -159 15 0 158 -92 176
-114 7 -9 26 -16 40 -16 15 0 37 -9 49 -20 12 -11 30 -20 40 -20 10 0 27 -9
37 -20 12 -13 31 -20 55 -20 22 0 48 -8 63 -20 14 -11 40 -20 60 -20 19 0 40
-7 47 -15 8 -10 30 -15 64 -15 34 0 61 -7 81 -20 17 -11 47 -20 67 -20 20 0
40 -5 43 -10 3 -6 32 -10 64 -10 40 0 63 -5 71 -15 8 -10 31 -15 70 -15 56 0
60 -2 111 -50 l53 -50 927 0 927 0 7 78 c4 43 5 144 3 225 -3 159 1 173 65
221 25 19 41 19 382 17 l355 -2 0 470 0 471 -40 0 c-32 0 -42 4 -49 22 -4 11
-8 -164 -8 -391 0 -306 -3 -415 -12 -424 -9 -9 -120 -13 -409 -17 l-397 -5 -5
-255 c-3 -140 -9 -261 -13 -267 -13 -20 -286 -18 -315 3 l-22 15 0 688 c0 652
1 689 18 704 16 15 69 17 497 19 l479 3 -3 58 c-2 44 2 66 18 93 12 19 21 45
21 58 0 12 9 41 20 64 11 22 20 54 20 71 0 16 5 42 12 58 6 15 15 57 19 93 11
97 27 170 39 186 9 9 11 99 8 316 -4 282 -6 307 -26 358 -12 30 -22 77 -22
104 0 31 -6 56 -16 67 -10 11 -18 41 -20 75 -2 33 -9 63 -18 73 -10 11 -16 36
-16 63 0 30 -7 54 -20 71 -11 14 -20 36 -20 50 0 13 -9 32 -20 42 -12 11 -20
31 -20 50 0 19 -8 39 -20 50 -11 10 -20 31 -20 47 0 16 -9 38 -20 50 -11 12
-20 28 -20 35 0 7 -4 13 -9 13 -5 0 -17 17 -26 37 -10 21 -33 59 -52 85 -18
26 -33 52 -33 56 0 5 -9 17 -20 27 -11 10 -20 23 -20 30 0 7 -9 20 -20 30 -11
10 -20 22 -20 27 0 34 -474 508 -508 508 -5 0 -17 9 -27 20 -10 11 -23 20 -30
20 -7 0 -20 9 -30 20 -10 11 -22 20 -27 20 -4 0 -30 15 -56 33 -26 19 -64 42
-85 52 -20 9 -37 21 -37 26 0 5 -11 9 -23 9 -13 0 -32 9 -42 20 -11 12 -31 20
-50 20 -19 0 -39 8 -50 20 -10 11 -28 20 -40 20 -12 0 -30 9 -40 20 -10 11
-29 20 -42 20 -14 0 -36 9 -50 20 -17 13 -41 20 -71 20 -26 0 -52 6 -62 15 -9
8 -43 17 -75 21 -33 4 -67 12 -75 19 -8 7 -37 15 -65 18 -27 3 -70 11 -95 18
-32 9 -147 14 -385 16 -320 2 -342 1 -375 -17z m615 -125 c297 -38 596 -145
823 -295 30 -19 65 -42 78 -50 24 -15 33 -40 13 -40 -26 0 5 -39 146 -182 139
-142 162 -171 310 -393 214 -322 299 -490 370 -731 36 -123 45 -193 45 -376 0
-166 0 -168 -22 -172 -101 -21 -1033 -33 -1298 -17 l-105 6 -15 46 c-9 25 -23
57 -33 72 -9 14 -17 33 -17 41 0 22 -19 30 -26 12 -9 -23 -17 -20 -58 17 -26
23 -37 43 -42 75 -5 35 -4 42 10 42 9 0 16 2 16 4 0 14 -31 59 -58 84 -35 33
-41 65 -17 99 20 28 205 393 205 403 0 16 -116 62 -204 81 -49 10 -92 19 -94
19 -2 0 1 6 7 14 24 29 -24 41 -159 39 -70 -1 -154 4 -190 11 -87 17 -173 13
-215 -10 -35 -19 -45 -39 -23 -46 7 -3 -26 -15 -72 -27 -87 -24 -180 -65 -180
-80 0 -4 50 -104 110 -221 61 -117 110 -222 110 -233 0 -11 -16 -37 -35 -58
-37 -42 -44 -59 -21 -59 12 0 40 -36 70 -91 9 -16 15 -14 60 15 105 66 151 80
266 80 97 1 110 -2 172 -31 82 -38 151 -101 180 -162 19 -38 22 -64 23 -151 0
-93 -3 -111 -27 -163 -35 -75 -113 -156 -191 -198 -59 -32 -67 -34 -162 -34
-84 0 -108 4 -149 24 -68 32 -153 115 -186 181 -33 67 -44 119 -44 230 l-1 85
-56 -3 c-34 -2 -59 1 -63 7 -14 22 -28 9 -55 -53 -16 -34 -36 -66 -46 -69 -9
-4 -197 -10 -418 -13 -375 -6 -772 4 -937 24 l-55 7 1 210 c0 219 6 256 61
415 89 257 124 319 404 729 82 120 196 251 260 299 88 65 234 198 237 216 2
10 -4 26 -14 37 -10 11 -12 19 -5 19 6 0 21 11 33 25 12 14 27 25 33 25 7 0
23 9 37 19 73 58 318 157 508 206 195 51 491 67 705 40z m-440 -2874 c3 -5 27
-17 53 -27 49 -18 82 -41 82 -56 0 -5 -21 -18 -47 -29 -95 -41 -292 -211 -332
-288 -9 -15 -16 -20 -23 -13 -7 7 -3 23 10 48 11 22 29 57 40 79 11 22 38 74
60 115 21 41 51 99 66 128 23 45 30 52 56 52 16 0 31 -4 35 -9z m1318 -423
c15 -18 17 -48 17 -304 l0 -284 -50 -55 c-27 -30 -50 -58 -50 -61 0 -3 17 -22
38 -42 22 -21 44 -47 50 -59 8 -15 12 -109 12 -302 0 -241 -2 -282 -16 -295
-14 -14 -78 -16 -562 -16 -479 0 -550 2 -570 16 -22 15 -22 17 -22 310 l0 294
45 44 c25 25 45 52 45 61 0 9 -20 37 -44 63 l-43 47 -7 287 c-5 207 -4 294 4
309 l12 21 561 -7 c547 -7 562 -7 580 -27z m-2013 -768 c0 -5 -7 -10 -16 -10
-8 0 -12 5 -9 10 3 6 10 10 16 10 5 0 9 -4 9 -10z"/>
<path d="M2883 1219 c-17 -17 -18 -170 -1 -187 9 -9 73 -12 224 -12 253 0 244
-4 244 103 0 40 -5 79 -10 87 -13 20 -438 28 -457 9z"/>
<path d="M2882 658 c-16 -16 -16 -170 0 -186 15 -15 420 -17 449 -2 16 9 19
22 19 86 0 121 15 114 -238 114 -156 0 -221 -3 -230 -12z"/>
<path d="M4212 1222 c-9 -6 -12 -34 -10 -103 l3 -94 224 -3 c156 -2 228 1 237
9 18 15 20 169 2 187 -14 14 -434 17 -456 4z"/>
</g>
</svg>
